<?xml version="1.0" encoding="utf-8" standalone="no"?>
<!DOCTYPE svg PUBLIC "-//W3C//DTD SVG 1.1//EN"
  "http://www.w3.org/Graphics/SVG/1.1/DTD/svg11.dtd">
<svg height="345.6pt" version="1.1" viewBox="0 0 460.8 345.6" width="460.8pt" xmlns="http://www.w3.org/2000/svg" xmlns:xlink="http://www.w3.org/1999/xlink">
 <metadata>
  <rdf:RDF xmlns:cc="http://creativecommons.org/ns#" xmlns:dc="http://purl.org/dc/elements/1.1/" xmlns:rdf="http://www.w3.org/1999/02/22-rdf-syntax-ns#">
   <cc:Work>
    <dc:type rdf:resource="http://purl.org/dc/dcmitype/StillImage"/>
    <dc:date>2023-07-17T15:48:28.331469</dc:date>
    <dc:format>image/svg+xml</dc:format>
    <dc:creator>
     <cc:Agent>
      <dc:title>Matplotlib v3.4.1, https://matplotlib.org/</dc:title>
     </cc:Agent>
    </dc:creator>
   </cc:Work>
  </rdf:RDF>
 </metadata>
 <defs>
  <style type="text/css">*{stroke-linecap:butt;stroke-linejoin:round;}</style>
 </defs>
 <g id="figure_1">
  <g id="patch_1">
   <path d="M 0 345.6 
L 460.8 345.6 
L 460.8 0 
L 0 0 
z
" style="fill:#ffffff;"/>
  </g>
  <g id="axes_1">
   <g id="patch_2">
    <path d="M 62.39 303.64 
L 398.41 303.64 
L 398.41 10.8 
L 62.39 10.8 
z
" style="fill:#ffffff;"/>
   </g>
   <g id="matplotlib.axis_1">
    <g id="xtick_1">
     <g id="line2d_1">
      <defs>
       <path d="M 0 0 
L 0 3.5 
" id="m2fdb26da21" style="stroke:#000000;stroke-width:0.8;"/>
      </defs>
      <g>
       <use style="stroke:#000000;stroke-width:0.8;" x="77.663636" xlink:href="#m2fdb26da21" y="303.64"/>
      </g>
     </g>
     <g id="text_1">
      <!-- 0.00 -->
      <g transform="translate(66.530824 318.238437)scale(0.1 -0.1)">
       <defs>
        <path d="M 2034 4250 
Q 1547 4250 1301 3770 
Q 1056 3291 1056 2328 
Q 1056 1369 1301 889 
Q 1547 409 2034 409 
Q 2525 409 2770 889 
Q 3016 1369 3016 2328 
Q 3016 3291 2770 3770 
Q 2525 4250 2034 4250 
z
M 2034 4750 
Q 2819 4750 3233 4129 
Q 3647 3509 3647 2328 
Q 3647 1150 3233 529 
Q 2819 -91 2034 -91 
Q 1250 -91 836 529 
Q 422 1150 422 2328 
Q 422 3509 836 4129 
Q 1250 4750 2034 4750 
z
" id="DejaVuSans-30" transform="scale(0.015625)"/>
        <path d="M 684 794 
L 1344 794 
L 1344 0 
L 684 0 
L 684 794 
z
" id="DejaVuSans-2e" transform="scale(0.015625)"/>
       </defs>
       <use xlink:href="#DejaVuSans-30"/>
       <use x="63.623047" xlink:href="#DejaVuSans-2e"/>
       <use x="95.410156" xlink:href="#DejaVuSans-30"/>
       <use x="159.033203" xlink:href="#DejaVuSans-30"/>
      </g>
     </g>
    </g>
    <g id="xtick_2">
     <g id="line2d_2">
      <g>
       <use style="stroke:#000000;stroke-width:0.8;" x="115.853074" xlink:href="#m2fdb26da21" y="303.64"/>
      </g>
     </g>
     <g id="text_2">
      <!-- 0.25 -->
      <g transform="translate(104.720261 318.238437)scale(0.1 -0.1)">
       <defs>
        <path d="M 1228 531 
L 3431 531 
L 3431 0 
L 469 0 
L 469 531 
Q 828 903 1448 1529 
Q 2069 2156 2228 2338 
Q 2531 2678 2651 2914 
Q 2772 3150 2772 3378 
Q 2772 3750 2511 3984 
Q 2250 4219 1831 4219 
Q 1534 4219 1204 4116 
Q 875 4013 500 3803 
L 500 4441 
Q 881 4594 1212 4672 
Q 1544 4750 1819 4750 
Q 2544 4750 2975 4387 
Q 3406 4025 3406 3419 
Q 3406 3131 3298 2873 
Q 3191 2616 2906 2266 
Q 2828 2175 2409 1742 
Q 1991 1309 1228 531 
z
" id="DejaVuSans-32" transform="scale(0.015625)"/>
        <path d="M 691 4666 
L 3169 4666 
L 3169 4134 
L 1269 4134 
L 1269 2991 
Q 1406 3038 1543 3061 
Q 1681 3084 1819 3084 
Q 2600 3084 3056 2656 
Q 3513 2228 3513 1497 
Q 3513 744 3044 326 
Q 2575 -91 1722 -91 
Q 1428 -91 1123 -41 
Q 819 9 494 109 
L 494 744 
Q 775 591 1075 516 
Q 1375 441 1709 441 
Q 2250 441 2565 725 
Q 2881 1009 2881 1497 
Q 2881 1984 2565 2268 
Q 2250 2553 1709 2553 
Q 1456 2553 1204 2497 
Q 953 2441 691 2322 
L 691 4666 
z
" id="DejaVuSans-35" transform="scale(0.015625)"/>
       </defs>
       <use xlink:href="#DejaVuSans-30"/>
       <use x="63.623047" xlink:href="#DejaVuSans-2e"/>
       <use x="95.410156" xlink:href="#DejaVuSans-32"/>
       <use x="159.033203" xlink:href="#DejaVuSans-35"/>
      </g>
     </g>
    </g>
    <g id="xtick_3">
     <g id="line2d_3">
      <g>
       <use style="stroke:#000000;stroke-width:0.8;" x="154.042511" xlink:href="#m2fdb26da21" y="303.64"/>
      </g>
     </g>
     <g id="text_3">
      <!-- 0.50 -->
      <g transform="translate(142.909699 318.238437)scale(0.1 -0.1)">
       <use xlink:href="#DejaVuSans-30"/>
       <use x="63.623047" xlink:href="#DejaVuSans-2e"/>
       <use x="95.410156" xlink:href="#DejaVuSans-35"/>
       <use x="159.033203" xlink:href="#DejaVuSans-30"/>
      </g>
     </g>
    </g>
    <g id="xtick_4">
     <g id="line2d_4">
      <g>
       <use style="stroke:#000000;stroke-width:0.8;" x="192.231949" xlink:href="#m2fdb26da21" y="303.64"/>
      </g>
     </g>
     <g id="text_4">
      <!-- 0.75 -->
      <g transform="translate(181.099136 318.238437)scale(0.1 -0.1)">
       <defs>
        <path d="M 525 4666 
L 3525 4666 
L 3525 4397 
L 1831 0 
L 1172 0 
L 2766 4134 
L 525 4134 
L 525 4666 
z
" id="DejaVuSans-37" transform="scale(0.015625)"/>
       </defs>
       <use xlink:href="#DejaVuSans-30"/>
       <use x="63.623047" xlink:href="#DejaVuSans-2e"/>
       <use x="95.410156" xlink:href="#DejaVuSans-37"/>
       <use x="159.033203" xlink:href="#DejaVuSans-35"/>
      </g>
     </g>
    </g>
    <g id="xtick_5">
     <g id="line2d_5">
      <g>
       <use style="stroke:#000000;stroke-width:0.8;" x="230.421386" xlink:href="#m2fdb26da21" y="303.64"/>
      </g>
     </g>
     <g id="text_5">
      <!-- 1.00 -->
      <g transform="translate(219.288574 318.238437)scale(0.1 -0.1)">
       <defs>
        <path d="M 794 531 
L 1825 531 
L 1825 4091 
L 703 3866 
L 703 4441 
L 1819 4666 
L 2450 4666 
L 2450 531 
L 3481 531 
L 3481 0 
L 794 0 
L 794 531 
z
" id="DejaVuSans-31" transform="scale(0.015625)"/>
       </defs>
       <use xlink:href="#DejaVuSans-31"/>
       <use x="63.623047" xlink:href="#DejaVuSans-2e"/>
       <use x="95.410156" xlink:href="#DejaVuSans-30"/>
       <use x="159.033203" xlink:href="#DejaVuSans-30"/>
      </g>
     </g>
    </g>
    <g id="xtick_6">
     <g id="line2d_6">
      <g>
       <use style="stroke:#000000;stroke-width:0.8;" x="268.610824" xlink:href="#m2fdb26da21" y="303.64"/>
      </g>
     </g>
     <g id="text_6">
      <!-- 1.25 -->
      <g transform="translate(257.478011 318.238437)scale(0.1 -0.1)">
       <use xlink:href="#DejaVuSans-31"/>
       <use x="63.623047" xlink:href="#DejaVuSans-2e"/>
       <use x="95.410156" xlink:href="#DejaVuSans-32"/>
       <use x="159.033203" xlink:href="#DejaVuSans-35"/>
      </g>
     </g>
    </g>
    <g id="xtick_7">
     <g id="line2d_7">
      <g>
       <use style="stroke:#000000;stroke-width:0.8;" x="306.800261" xlink:href="#m2fdb26da21" y="303.64"/>
      </g>
     </g>
     <g id="text_7">
      <!-- 1.50 -->
      <g transform="translate(295.667448 318.238437)scale(0.1 -0.1)">
       <use xlink:href="#DejaVuSans-31"/>
       <use x="63.623047" xlink:href="#DejaVuSans-2e"/>
       <use x="95.410156" xlink:href="#DejaVuSans-35"/>
       <use x="159.033203" xlink:href="#DejaVuSans-30"/>
      </g>
     </g>
    </g>
    <g id="xtick_8">
     <g id="line2d_8">
      <g>
       <use style="stroke:#000000;stroke-width:0.8;" x="344.989698" xlink:href="#m2fdb26da21" y="303.64"/>
      </g>
     </g>
     <g id="text_8">
      <!-- 1.75 -->
      <g transform="translate(333.856886 318.238437)scale(0.1 -0.1)">
       <use xlink:href="#DejaVuSans-31"/>
       <use x="63.623047" xlink:href="#DejaVuSans-2e"/>
       <use x="95.410156" xlink:href="#DejaVuSans-37"/>
       <use x="159.033203" xlink:href="#DejaVuSans-35"/>
      </g>
     </g>
    </g>
    <g id="xtick_9">
     <g id="line2d_9">
      <g>
       <use style="stroke:#000000;stroke-width:0.8;" x="383.179136" xlink:href="#m2fdb26da21" y="303.64"/>
      </g>
     </g>
     <g id="text_9">
      <!-- 2.00 -->
      <g transform="translate(372.046323 318.238437)scale(0.1 -0.1)">
       <use xlink:href="#DejaVuSans-32"/>
       <use x="63.623047" xlink:href="#DejaVuSans-2e"/>
       <use x="95.410156" xlink:href="#DejaVuSans-30"/>
       <use x="159.033203" xlink:href="#DejaVuSans-30"/>
      </g>
     </g>
    </g>
    <g id="text_10">
     <!-- time (ms) -->
     <g transform="translate(206.138281 331.916562)scale(0.1 -0.1)">
      <defs>
       <path d="M 1172 4494 
L 1172 3500 
L 2356 3500 
L 2356 3053 
L 1172 3053 
L 1172 1153 
Q 1172 725 1289 603 
Q 1406 481 1766 481 
L 2356 481 
L 2356 0 
L 1766 0 
Q 1100 0 847 248 
Q 594 497 594 1153 
L 594 3053 
L 172 3053 
L 172 3500 
L 594 3500 
L 594 4494 
L 1172 4494 
z
" id="DejaVuSans-74" transform="scale(0.015625)"/>
       <path d="M 603 3500 
L 1178 3500 
L 1178 0 
L 603 0 
L 603 3500 
z
M 603 4863 
L 1178 4863 
L 1178 4134 
L 603 4134 
L 603 4863 
z
" id="DejaVuSans-69" transform="scale(0.015625)"/>
       <path d="M 3328 2828 
Q 3544 3216 3844 3400 
Q 4144 3584 4550 3584 
Q 5097 3584 5394 3201 
Q 5691 2819 5691 2113 
L 5691 0 
L 5113 0 
L 5113 2094 
Q 5113 2597 4934 2840 
Q 4756 3084 4391 3084 
Q 3944 3084 3684 2787 
Q 3425 2491 3425 1978 
L 3425 0 
L 2847 0 
L 2847 2094 
Q 2847 2600 2669 2842 
Q 2491 3084 2119 3084 
Q 1678 3084 1418 2786 
Q 1159 2488 1159 1978 
L 1159 0 
L 581 0 
L 581 3500 
L 1159 3500 
L 1159 2956 
Q 1356 3278 1631 3431 
Q 1906 3584 2284 3584 
Q 2666 3584 2933 3390 
Q 3200 3197 3328 2828 
z
" id="DejaVuSans-6d" transform="scale(0.015625)"/>
       <path d="M 3597 1894 
L 3597 1613 
L 953 1613 
Q 991 1019 1311 708 
Q 1631 397 2203 397 
Q 2534 397 2845 478 
Q 3156 559 3463 722 
L 3463 178 
Q 3153 47 2828 -22 
Q 2503 -91 2169 -91 
Q 1331 -91 842 396 
Q 353 884 353 1716 
Q 353 2575 817 3079 
Q 1281 3584 2069 3584 
Q 2775 3584 3186 3129 
Q 3597 2675 3597 1894 
z
M 3022 2063 
Q 3016 2534 2758 2815 
Q 2500 3097 2075 3097 
Q 1594 3097 1305 2825 
Q 1016 2553 972 2059 
L 3022 2063 
z
" id="DejaVuSans-65" transform="scale(0.015625)"/>
       <path id="DejaVuSans-20" transform="scale(0.015625)"/>
       <path d="M 1984 4856 
Q 1566 4138 1362 3434 
Q 1159 2731 1159 2009 
Q 1159 1288 1364 580 
Q 1569 -128 1984 -844 
L 1484 -844 
Q 1016 -109 783 600 
Q 550 1309 550 2009 
Q 550 2706 781 3412 
Q 1013 4119 1484 4856 
L 1984 4856 
z
" id="DejaVuSans-28" transform="scale(0.015625)"/>
       <path d="M 2834 3397 
L 2834 2853 
Q 2591 2978 2328 3040 
Q 2066 3103 1784 3103 
Q 1356 3103 1142 2972 
Q 928 2841 928 2578 
Q 928 2378 1081 2264 
Q 1234 2150 1697 2047 
L 1894 2003 
Q 2506 1872 2764 1633 
Q 3022 1394 3022 966 
Q 3022 478 2636 193 
Q 2250 -91 1575 -91 
Q 1294 -91 989 -36 
Q 684 19 347 128 
L 347 722 
Q 666 556 975 473 
Q 1284 391 1588 391 
Q 1994 391 2212 530 
Q 2431 669 2431 922 
Q 2431 1156 2273 1281 
Q 2116 1406 1581 1522 
L 1381 1569 
Q 847 1681 609 1914 
Q 372 2147 372 2553 
Q 372 3047 722 3315 
Q 1072 3584 1716 3584 
Q 2034 3584 2315 3537 
Q 2597 3491 2834 3397 
z
" id="DejaVuSans-73" transform="scale(0.015625)"/>
       <path d="M 513 4856 
L 1013 4856 
Q 1481 4119 1714 3412 
Q 1947 2706 1947 2009 
Q 1947 1309 1714 600 
Q 1481 -109 1013 -844 
L 513 -844 
Q 928 -128 1133 580 
Q 1338 1288 1338 2009 
Q 1338 2731 1133 3434 
Q 928 4138 513 4856 
z
" id="DejaVuSans-29" transform="scale(0.015625)"/>
      </defs>
      <use xlink:href="#DejaVuSans-74"/>
      <use x="39.208984" xlink:href="#DejaVuSans-69"/>
      <use x="66.992188" xlink:href="#DejaVuSans-6d"/>
      <use x="164.404297" xlink:href="#DejaVuSans-65"/>
      <use x="225.927734" xlink:href="#DejaVuSans-20"/>
      <use x="257.714844" xlink:href="#DejaVuSans-28"/>
      <use x="296.728516" xlink:href="#DejaVuSans-6d"/>
      <use x="394.140625" xlink:href="#DejaVuSans-73"/>
      <use x="446.240234" xlink:href="#DejaVuSans-29"/>
     </g>
    </g>
   </g>
   <g id="matplotlib.axis_2">
    <g id="ytick_1">
     <g id="line2d_10">
      <defs>
       <path d="M 0 0 
L -3.5 0 
" id="mc1978c3def" style="stroke:#000000;stroke-width:0.8;"/>
      </defs>
      <g>
       <use style="stroke:#000000;stroke-width:0.8;" x="62.39" xlink:href="#mc1978c3def" y="290.32989"/>
      </g>
     </g>
     <g id="text_11">
      <!-- −1.00 -->
      <g style="fill:#d62728;" transform="translate(24.744688 294.129108)scale(0.1 -0.1)">
       <defs>
        <path d="M 678 2272 
L 4684 2272 
L 4684 1741 
L 678 1741 
L 678 2272 
z
" id="DejaVuSans-2212" transform="scale(0.015625)"/>
       </defs>
       <use xlink:href="#DejaVuSans-2212"/>
       <use x="83.789062" xlink:href="#DejaVuSans-31"/>
       <use x="147.412109" xlink:href="#DejaVuSans-2e"/>
       <use x="179.199219" xlink:href="#DejaVuSans-30"/>
       <use x="242.822266" xlink:href="#DejaVuSans-30"/>
      </g>
     </g>
    </g>
    <g id="ytick_2">
     <g id="line2d_11">
      <g>
       <use style="stroke:#000000;stroke-width:0.8;" x="62.39" xlink:href="#mc1978c3def" y="257.052414"/>
      </g>
     </g>
     <g id="text_12">
      <!-- −0.75 -->
      <g style="fill:#d62728;" transform="translate(24.744688 260.851633)scale(0.1 -0.1)">
       <use xlink:href="#DejaVuSans-2212"/>
       <use x="83.789062" xlink:href="#DejaVuSans-30"/>
       <use x="147.412109" xlink:href="#DejaVuSans-2e"/>
       <use x="179.199219" xlink:href="#DejaVuSans-37"/>
       <use x="242.822266" xlink:href="#DejaVuSans-35"/>
      </g>
     </g>
    </g>
    <g id="ytick_3">
     <g id="line2d_12">
      <g>
       <use style="stroke:#000000;stroke-width:0.8;" x="62.39" xlink:href="#mc1978c3def" y="223.774938"/>
      </g>
     </g>
     <g id="text_13">
      <!-- −0.50 -->
      <g style="fill:#d62728;" transform="translate(24.744688 227.574157)scale(0.1 -0.1)">
       <use xlink:href="#DejaVuSans-2212"/>
       <use x="83.789062" xlink:href="#DejaVuSans-30"/>
       <use x="147.412109" xlink:href="#DejaVuSans-2e"/>
       <use x="179.199219" xlink:href="#DejaVuSans-35"/>
       <use x="242.822266" xlink:href="#DejaVuSans-30"/>
      </g>
     </g>
    </g>
    <g id="ytick_4">
     <g id="line2d_13">
      <g>
       <use style="stroke:#000000;stroke-width:0.8;" x="62.39" xlink:href="#mc1978c3def" y="190.497462"/>
      </g>
     </g>
     <g id="text_14">
      <!-- −0.25 -->
      <g style="fill:#d62728;" transform="translate(24.744688 194.296681)scale(0.1 -0.1)">
       <use xlink:href="#DejaVuSans-2212"/>
       <use x="83.789062" xlink:href="#DejaVuSans-30"/>
       <use x="147.412109" xlink:href="#DejaVuSans-2e"/>
       <use x="179.199219" xlink:href="#DejaVuSans-32"/>
       <use x="242.822266" xlink:href="#DejaVuSans-35"/>
      </g>
     </g>
    </g>
    <g id="ytick_5">
     <g id="line2d_14">
      <g>
       <use style="stroke:#000000;stroke-width:0.8;" x="62.39" xlink:href="#mc1978c3def" y="157.219987"/>
      </g>
     </g>
     <g id="text_15">
      <!-- 0.00 -->
      <g style="fill:#d62728;" transform="translate(33.124375 161.019205)scale(0.1 -0.1)">
       <use xlink:href="#DejaVuSans-30"/>
       <use x="63.623047" xlink:href="#DejaVuSans-2e"/>
       <use x="95.410156" xlink:href="#DejaVuSans-30"/>
       <use x="159.033203" xlink:href="#DejaVuSans-30"/>
      </g>
     </g>
    </g>
    <g id="ytick_6">
     <g id="line2d_15">
      <g>
       <use style="stroke:#000000;stroke-width:0.8;" x="62.39" xlink:href="#mc1978c3def" y="123.942511"/>
      </g>
     </g>
     <g id="text_16">
      <!-- 0.25 -->
      <g style="fill:#d62728;" transform="translate(33.124375 127.74173)scale(0.1 -0.1)">
       <use xlink:href="#DejaVuSans-30"/>
       <use x="63.623047" xlink:href="#DejaVuSans-2e"/>
       <use x="95.410156" xlink:href="#DejaVuSans-32"/>
       <use x="159.033203" xlink:href="#DejaVuSans-35"/>
      </g>
     </g>
    </g>
    <g id="ytick_7">
     <g id="line2d_16">
      <g>
       <use style="stroke:#000000;stroke-width:0.8;" x="62.39" xlink:href="#mc1978c3def" y="90.665035"/>
      </g>
     </g>
     <g id="text_17">
      <!-- 0.50 -->
      <g style="fill:#d62728;" transform="translate(33.124375 94.464254)scale(0.1 -0.1)">
       <use xlink:href="#DejaVuSans-30"/>
       <use x="63.623047" xlink:href="#DejaVuSans-2e"/>
       <use x="95.410156" xlink:href="#DejaVuSans-35"/>
       <use x="159.033203" xlink:href="#DejaVuSans-30"/>
      </g>
     </g>
    </g>
    <g id="ytick_8">
     <g id="line2d_17">
      <g>
       <use style="stroke:#000000;stroke-width:0.8;" x="62.39" xlink:href="#mc1978c3def" y="57.38756"/>
      </g>
     </g>
     <g id="text_18">
      <!-- 0.75 -->
      <g style="fill:#d62728;" transform="translate(33.124375 61.186778)scale(0.1 -0.1)">
       <use xlink:href="#DejaVuSans-30"/>
       <use x="63.623047" xlink:href="#DejaVuSans-2e"/>
       <use x="95.410156" xlink:href="#DejaVuSans-37"/>
       <use x="159.033203" xlink:href="#DejaVuSans-35"/>
      </g>
     </g>
    </g>
    <g id="ytick_9">
     <g id="line2d_18">
      <g>
       <use style="stroke:#000000;stroke-width:0.8;" x="62.39" xlink:href="#mc1978c3def" y="24.110084"/>
      </g>
     </g>
     <g id="text_19">
      <!-- 1.00 -->
      <g style="fill:#d62728;" transform="translate(33.124375 27.909303)scale(0.1 -0.1)">
       <use xlink:href="#DejaVuSans-31"/>
       <use x="63.623047" xlink:href="#DejaVuSans-2e"/>
       <use x="95.410156" xlink:href="#DejaVuSans-30"/>
       <use x="159.033203" xlink:href="#DejaVuSans-30"/>
      </g>
     </g>
    </g>
    <g id="text_20">
     <!-- Vr (V) -->
     <g style="fill:#d62728;" transform="translate(18.665 171.606719)rotate(-90)scale(0.1 -0.1)">
      <defs>
       <path d="M 1831 0 
L 50 4666 
L 709 4666 
L 2188 738 
L 3669 4666 
L 4325 4666 
L 2547 0 
L 1831 0 
z
" id="DejaVuSans-56" transform="scale(0.015625)"/>
       <path d="M 2631 2963 
Q 2534 3019 2420 3045 
Q 2306 3072 2169 3072 
Q 1681 3072 1420 2755 
Q 1159 2438 1159 1844 
L 1159 0 
L 581 0 
L 581 3500 
L 1159 3500 
L 1159 2956 
Q 1341 3275 1631 3429 
Q 1922 3584 2338 3584 
Q 2397 3584 2469 3576 
Q 2541 3569 2628 3553 
L 2631 2963 
z
" id="DejaVuSans-72" transform="scale(0.015625)"/>
      </defs>
      <use xlink:href="#DejaVuSans-56"/>
      <use x="68.408203" xlink:href="#DejaVuSans-72"/>
      <use x="109.521484" xlink:href="#DejaVuSans-20"/>
      <use x="141.308594" xlink:href="#DejaVuSans-28"/>
      <use x="180.322266" xlink:href="#DejaVuSans-56"/>
      <use x="248.730469" xlink:href="#DejaVuSans-29"/>
     </g>
    </g>
   </g>
   <g id="line2d_19">
    <path clip-path="url(#p97d4076d3e)" d="M 77.663636 156.751629 
L 82.246369 107.783794 
L 84.690493 84.097672 
L 86.676344 66.981642 
L 88.356679 54.359136 
L 89.884256 44.581322 
L 91.106318 38.031569 
L 92.32838 32.685396 
L 93.397685 29.037533 
L 94.314231 26.698845 
L 95.07802 25.316046 
L 95.689051 24.584408 
L 96.300082 24.187833 
L 96.758355 24.110909 
L 97.216628 24.223134 
L 97.674902 24.524362 
L 98.285933 25.219209 
L 98.896964 26.247509 
L 99.660752 27.997745 
L 100.577299 30.770464 
L 101.493845 34.261684 
L 102.56315 39.216208 
L 103.785212 45.993312 
L 105.160031 54.956227 
L 106.687609 66.441975 
L 108.520702 82.097044 
L 110.65931 102.489095 
L 113.40895 131.095704 
L 121.810626 220.288124 
L 123.949235 239.830921 
L 125.782328 254.572976 
L 127.309905 265.182767 
L 128.684725 273.280108 
L 129.906787 279.235578 
L 130.976091 283.437725 
L 131.892638 286.263648 
L 132.809184 288.356402 
L 133.572973 289.531496 
L 134.184004 290.095749 
L 134.795035 290.324432 
L 135.253308 290.275315 
L 135.711581 290.037048 
L 136.322612 289.425807 
L 136.933643 288.480727 
L 137.697432 286.833359 
L 138.613979 284.181942 
L 139.530525 280.809204 
L 140.599829 275.988362 
L 141.821891 269.356694 
L 143.196711 260.546416 
L 144.724288 249.214237 
L 146.404624 235.080628 
L 148.390474 216.485174 
L 150.987356 189.869184 
L 156.028362 135.10938 
L 159.236275 101.636579 
L 161.527641 79.957475 
L 163.360734 64.551069 
L 165.041069 52.268472 
L 166.415889 43.698923 
L 167.637951 37.296257 
L 168.707255 32.685396 
L 169.776559 29.037533 
L 170.693106 26.698845 
L 171.456895 25.316046 
L 172.067926 24.584408 
L 172.678957 24.187833 
L 173.13723 24.110909 
L 173.595503 24.223134 
L 174.053776 24.524362 
L 174.664807 25.219209 
L 175.275838 26.247509 
L 176.039627 27.997745 
L 176.956174 30.770464 
L 177.87272 34.261684 
L 178.942024 39.216208 
L 180.164086 45.993312 
L 181.538906 54.956227 
L 183.066484 66.441975 
L 184.899577 82.097044 
L 187.038185 102.489095 
L 189.787825 131.095704 
L 198.189501 220.288124 
L 200.328109 239.830921 
L 202.161202 254.572976 
L 203.68878 265.182767 
L 205.0636 273.280108 
L 206.285662 279.235578 
L 207.354966 283.437725 
L 208.271512 286.263648 
L 209.188059 288.356402 
L 209.951848 289.531496 
L 210.562879 290.095749 
L 211.17391 290.324432 
L 211.632183 290.275315 
L 212.090456 290.037048 
L 212.701487 289.425807 
L 213.312518 288.480727 
L 214.076307 286.833359 
L 214.992853 284.181942 
L 215.9094 280.809204 
L 216.978704 275.988362 
L 218.200766 269.356694 
L 219.575586 260.546416 
L 221.103163 249.214237 
L 222.783499 235.080628 
L 224.769349 216.485174 
L 227.366231 189.869184 
L 232.407237 135.10938 
L 235.61515 101.636579 
L 237.906516 79.957475 
L 239.739609 64.551069 
L 241.419944 52.268472 
L 242.794764 43.698923 
L 244.016826 37.296257 
L 245.08613 32.685396 
L 246.155434 29.037533 
L 247.071981 26.698845 
L 247.83577 25.316046 
L 248.446801 24.584408 
L 249.057832 24.187833 
L 249.516105 24.110909 
L 249.974378 24.223134 
L 250.432651 24.524362 
L 251.043682 25.219209 
L 251.654713 26.247509 
L 252.418502 27.997745 
L 253.335049 30.770464 
L 254.251595 34.261684 
L 255.320899 39.216208 
L 256.542961 45.993312 
L 257.917781 54.956227 
L 259.445359 66.441975 
L 261.278452 82.097044 
L 263.41706 102.489095 
L 266.1667 131.095704 
L 274.568376 220.288124 
L 276.706984 239.830921 
L 278.540077 254.572976 
L 280.067655 265.182767 
L 281.442474 273.280108 
L 282.664536 279.235578 
L 283.733841 283.437725 
L 284.650387 286.263648 
L 285.566934 288.356402 
L 286.330722 289.531496 
L 286.941753 290.095749 
L 287.552784 290.324432 
L 288.011058 290.275315 
L 288.469331 290.037048 
L 289.080362 289.425807 
L 289.691393 288.480727 
L 290.455182 286.833359 
L 291.371728 284.181942 
L 292.288275 280.809204 
L 293.357579 275.988362 
L 294.579641 269.356694 
L 295.954461 260.546416 
L 297.482038 249.214237 
L 299.162373 235.080628 
L 301.148224 216.485174 
L 303.745106 189.869184 
L 308.786112 135.10938 
L 311.994024 101.636579 
L 314.285391 79.957475 
L 316.118484 64.551069 
L 317.798819 52.268472 
L 319.173639 43.698923 
L 320.395701 37.296257 
L 321.465005 32.685396 
L 322.534309 29.037533 
L 323.450856 26.698845 
L 324.214644 25.316046 
L 324.825675 24.584408 
L 325.436706 24.187833 
L 325.89498 24.110909 
L 326.353253 24.223134 
L 326.811526 24.524362 
L 327.422557 25.219209 
L 328.033588 26.247509 
L 328.797377 27.997745 
L 329.713923 30.770464 
L 330.63047 34.261684 
L 331.699774 39.216208 
L 332.921836 45.993312 
L 334.296656 54.956227 
L 335.824233 66.441975 
L 337.657326 82.097044 
L 339.795935 102.489095 
L 342.545574 131.095704 
L 350.947251 220.288124 
L 353.085859 239.830921 
L 354.918952 254.572976 
L 356.44653 265.182767 
L 357.821349 273.280108 
L 359.043411 279.235578 
L 360.112716 283.437725 
L 361.029262 286.263648 
L 361.945809 288.356402 
L 362.709597 289.531496 
L 363.320628 290.095749 
L 363.931659 290.324432 
L 364.389933 290.275315 
L 364.848206 290.037048 
L 365.459237 289.425807 
L 366.070268 288.480727 
L 366.834057 286.833359 
L 367.750603 284.181942 
L 368.66715 280.809204 
L 369.736454 275.988362 
L 370.958516 269.356694 
L 372.333336 260.546416 
L 373.860913 249.214237 
L 375.541248 235.080628 
L 377.527099 216.485174 
L 380.123981 189.869184 
L 383.136364 157.219987 
L 383.136364 157.219987 
" style="fill:none;stroke:#d62728;stroke-linecap:square;stroke-width:1.5;"/>
   </g>
   <g id="patch_3">
    <path d="M 62.39 303.64 
L 62.39 10.8 
" style="fill:none;stroke:#000000;stroke-linecap:square;stroke-linejoin:miter;stroke-width:0.8;"/>
   </g>
   <g id="patch_4">
    <path d="M 398.41 303.64 
L 398.41 10.8 
" style="fill:none;stroke:#000000;stroke-linecap:square;stroke-linejoin:miter;stroke-width:0.8;"/>
   </g>
   <g id="patch_5">
    <path d="M 62.39 303.64 
L 398.41 303.64 
" style="fill:none;stroke:#000000;stroke-linecap:square;stroke-linejoin:miter;stroke-width:0.8;"/>
   </g>
   <g id="patch_6">
    <path d="M 62.39 10.8 
L 398.41 10.8 
" style="fill:none;stroke:#000000;stroke-linecap:square;stroke-linejoin:miter;stroke-width:0.8;"/>
   </g>
  </g>
  <g id="axes_2">
   <g id="matplotlib.axis_3">
    <g id="ytick_10">
     <g id="line2d_20">
      <defs>
       <path d="M 0 0 
L 3.5 0 
" id="m5b3b565692" style="stroke:#000000;stroke-width:0.8;"/>
      </defs>
      <g>
       <use style="stroke:#000000;stroke-width:0.8;" x="398.41" xlink:href="#m5b3b565692" y="290.329916"/>
      </g>
     </g>
     <g id="text_21">
      <!-- −1.00 -->
      <g style="fill:#1f77b4;" transform="translate(405.41 294.129135)scale(0.1 -0.1)">
       <use xlink:href="#DejaVuSans-2212"/>
       <use x="83.789062" xlink:href="#DejaVuSans-31"/>
       <use x="147.412109" xlink:href="#DejaVuSans-2e"/>
       <use x="179.199219" xlink:href="#DejaVuSans-30"/>
       <use x="242.822266" xlink:href="#DejaVuSans-30"/>
      </g>
     </g>
    </g>
    <g id="ytick_11">
     <g id="line2d_21">
      <g>
       <use style="stroke:#000000;stroke-width:0.8;" x="398.41" xlink:href="#m5b3b565692" y="257.05244"/>
      </g>
     </g>
     <g id="text_22">
      <!-- −0.75 -->
      <g style="fill:#1f77b4;" transform="translate(405.41 260.851659)scale(0.1 -0.1)">
       <use xlink:href="#DejaVuSans-2212"/>
       <use x="83.789062" xlink:href="#DejaVuSans-30"/>
       <use x="147.412109" xlink:href="#DejaVuSans-2e"/>
       <use x="179.199219" xlink:href="#DejaVuSans-37"/>
       <use x="242.822266" xlink:href="#DejaVuSans-35"/>
      </g>
     </g>
    </g>
    <g id="ytick_12">
     <g id="line2d_22">
      <g>
       <use style="stroke:#000000;stroke-width:0.8;" x="398.41" xlink:href="#m5b3b565692" y="223.774965"/>
      </g>
     </g>
     <g id="text_23">
      <!-- −0.50 -->
      <g style="fill:#1f77b4;" transform="translate(405.41 227.574184)scale(0.1 -0.1)">
       <use xlink:href="#DejaVuSans-2212"/>
       <use x="83.789062" xlink:href="#DejaVuSans-30"/>
       <use x="147.412109" xlink:href="#DejaVuSans-2e"/>
       <use x="179.199219" xlink:href="#DejaVuSans-35"/>
       <use x="242.822266" xlink:href="#DejaVuSans-30"/>
      </g>
     </g>
    </g>
    <g id="ytick_13">
     <g id="line2d_23">
      <g>
       <use style="stroke:#000000;stroke-width:0.8;" x="398.41" xlink:href="#m5b3b565692" y="190.497489"/>
      </g>
     </g>
     <g id="text_24">
      <!-- −0.25 -->
      <g style="fill:#1f77b4;" transform="translate(405.41 194.296708)scale(0.1 -0.1)">
       <use xlink:href="#DejaVuSans-2212"/>
       <use x="83.789062" xlink:href="#DejaVuSans-30"/>
       <use x="147.412109" xlink:href="#DejaVuSans-2e"/>
       <use x="179.199219" xlink:href="#DejaVuSans-32"/>
       <use x="242.822266" xlink:href="#DejaVuSans-35"/>
      </g>
     </g>
    </g>
    <g id="ytick_14">
     <g id="line2d_24">
      <g>
       <use style="stroke:#000000;stroke-width:0.8;" x="398.41" xlink:href="#m5b3b565692" y="157.220013"/>
      </g>
     </g>
     <g id="text_25">
      <!-- 0.00 -->
      <g style="fill:#1f77b4;" transform="translate(405.41 161.019232)scale(0.1 -0.1)">
       <use xlink:href="#DejaVuSans-30"/>
       <use x="63.623047" xlink:href="#DejaVuSans-2e"/>
       <use x="95.410156" xlink:href="#DejaVuSans-30"/>
       <use x="159.033203" xlink:href="#DejaVuSans-30"/>
      </g>
     </g>
    </g>
    <g id="ytick_15">
     <g id="line2d_25">
      <g>
       <use style="stroke:#000000;stroke-width:0.8;" x="398.41" xlink:href="#m5b3b565692" y="123.942538"/>
      </g>
     </g>
     <g id="text_26">
      <!-- 0.25 -->
      <g style="fill:#1f77b4;" transform="translate(405.41 127.741756)scale(0.1 -0.1)">
       <use xlink:href="#DejaVuSans-30"/>
       <use x="63.623047" xlink:href="#DejaVuSans-2e"/>
       <use x="95.410156" xlink:href="#DejaVuSans-32"/>
       <use x="159.033203" xlink:href="#DejaVuSans-35"/>
      </g>
     </g>
    </g>
    <g id="ytick_16">
     <g id="line2d_26">
      <g>
       <use style="stroke:#000000;stroke-width:0.8;" x="398.41" xlink:href="#m5b3b565692" y="90.665062"/>
      </g>
     </g>
     <g id="text_27">
      <!-- 0.50 -->
      <g style="fill:#1f77b4;" transform="translate(405.41 94.464281)scale(0.1 -0.1)">
       <use xlink:href="#DejaVuSans-30"/>
       <use x="63.623047" xlink:href="#DejaVuSans-2e"/>
       <use x="95.410156" xlink:href="#DejaVuSans-35"/>
       <use x="159.033203" xlink:href="#DejaVuSans-30"/>
      </g>
     </g>
    </g>
    <g id="ytick_17">
     <g id="line2d_27">
      <g>
       <use style="stroke:#000000;stroke-width:0.8;" x="398.41" xlink:href="#m5b3b565692" y="57.387586"/>
      </g>
     </g>
     <g id="text_28">
      <!-- 0.75 -->
      <g style="fill:#1f77b4;" transform="translate(405.41 61.186805)scale(0.1 -0.1)">
       <use xlink:href="#DejaVuSans-30"/>
       <use x="63.623047" xlink:href="#DejaVuSans-2e"/>
       <use x="95.410156" xlink:href="#DejaVuSans-37"/>
       <use x="159.033203" xlink:href="#DejaVuSans-35"/>
      </g>
     </g>
    </g>
    <g id="ytick_18">
     <g id="line2d_28">
      <g>
       <use style="stroke:#000000;stroke-width:0.8;" x="398.41" xlink:href="#m5b3b565692" y="24.11011"/>
      </g>
     </g>
     <g id="text_29">
      <!-- 1.00 -->
      <g style="fill:#1f77b4;" transform="translate(405.41 27.909329)scale(0.1 -0.1)">
       <use xlink:href="#DejaVuSans-31"/>
       <use x="63.623047" xlink:href="#DejaVuSans-2e"/>
       <use x="95.410156" xlink:href="#DejaVuSans-30"/>
       <use x="159.033203" xlink:href="#DejaVuSans-30"/>
      </g>
     </g>
    </g>
    <g id="text_30">
     <!-- Ir (mA) -->
     <g style="fill:#1f77b4;" transform="translate(447.65375 174.531719)rotate(-90)scale(0.1 -0.1)">
      <defs>
       <path d="M 628 4666 
L 1259 4666 
L 1259 0 
L 628 0 
L 628 4666 
z
" id="DejaVuSans-49" transform="scale(0.015625)"/>
       <path d="M 2188 4044 
L 1331 1722 
L 3047 1722 
L 2188 4044 
z
M 1831 4666 
L 2547 4666 
L 4325 0 
L 3669 0 
L 3244 1197 
L 1141 1197 
L 716 0 
L 50 0 
L 1831 4666 
z
" id="DejaVuSans-41" transform="scale(0.015625)"/>
      </defs>
      <use xlink:href="#DejaVuSans-49"/>
      <use x="29.492188" xlink:href="#DejaVuSans-72"/>
      <use x="70.605469" xlink:href="#DejaVuSans-20"/>
      <use x="102.392578" xlink:href="#DejaVuSans-28"/>
      <use x="141.40625" xlink:href="#DejaVuSans-6d"/>
      <use x="238.818359" xlink:href="#DejaVuSans-41"/>
      <use x="307.226562" xlink:href="#DejaVuSans-29"/>
     </g>
    </g>
   </g>
   <g id="line2d_29">
    <path clip-path="url(#p97d4076d3e)" d="M 77.663636 156.751655 
L 82.246369 107.783794 
L 84.690493 84.097685 
L 86.676344 66.981616 
L 88.356679 54.359203 
L 89.884256 44.581349 
L 91.106318 38.031543 
L 92.32838 32.68545 
L 93.397685 29.037573 
L 94.314231 26.698832 
L 95.07802 25.316086 
L 95.689051 24.584381 
L 96.300082 24.187847 
L 96.758355 24.110909 
L 97.216628 24.223121 
L 97.674902 24.524348 
L 98.285933 25.219182 
L 98.896964 26.247589 
L 99.660752 27.997718 
L 100.577299 30.770531 
L 101.493845 34.261737 
L 102.56315 39.216221 
L 103.785212 45.993378 
L 105.160031 54.956201 
L 106.687609 66.441988 
L 108.520702 82.097044 
L 110.65931 102.489081 
L 113.40895 131.095731 
L 121.810626 220.288204 
L 123.949235 239.831001 
L 125.782328 254.572962 
L 127.309905 265.18282 
L 128.684725 273.280148 
L 129.906787 279.235632 
L 130.976091 283.437712 
L 131.892638 286.263701 
L 132.809184 288.356442 
L 133.572973 289.531563 
L 134.184004 290.095842 
L 134.795035 290.324472 
L 135.253308 290.275288 
L 135.711581 290.037021 
L 136.322612 289.425847 
L 136.933643 288.4807 
L 137.697432 286.833345 
L 138.613979 284.182036 
L 139.530525 280.809297 
L 140.599829 275.988416 
L 141.821891 269.356774 
L 143.196711 260.546429 
L 144.724288 249.214197 
L 146.404624 235.080654 
L 148.390474 216.485254 
L 150.987356 189.86925 
L 156.028362 135.109394 
L 159.236275 101.636646 
L 161.527641 79.957568 
L 163.360734 64.551162 
L 165.041069 52.268446 
L 166.415889 43.698963 
L 167.637951 37.296244 
L 168.707255 32.68545 
L 169.776559 29.037573 
L 170.693106 26.698832 
L 171.456895 25.316086 
L 172.067926 24.584381 
L 172.678957 24.187847 
L 173.13723 24.110909 
L 173.595503 24.223121 
L 174.053776 24.524348 
L 174.664807 25.219182 
L 175.275838 26.247589 
L 176.039627 27.997718 
L 176.956174 30.770531 
L 177.87272 34.261737 
L 178.942024 39.216221 
L 180.164086 45.993378 
L 181.538906 54.956201 
L 183.066484 66.441988 
L 184.899577 82.097044 
L 187.038185 102.489081 
L 189.787825 131.095731 
L 198.189501 220.288204 
L 200.328109 239.831001 
L 202.161202 254.572962 
L 203.68878 265.18282 
L 205.0636 273.280148 
L 206.285662 279.235632 
L 207.354966 283.437712 
L 208.271512 286.263701 
L 209.188059 288.356442 
L 209.951848 289.531563 
L 210.562879 290.095842 
L 211.17391 290.324472 
L 211.632183 290.275288 
L 212.090456 290.037021 
L 212.701487 289.425847 
L 213.312518 288.4807 
L 214.076307 286.833345 
L 214.992853 284.182036 
L 215.9094 280.809297 
L 216.978704 275.988416 
L 218.200766 269.356774 
L 219.575586 260.546429 
L 221.103163 249.214197 
L 222.783499 235.080654 
L 224.769349 216.485254 
L 227.366231 189.86925 
L 232.407237 135.109394 
L 235.61515 101.636646 
L 237.906516 79.957568 
L 239.739609 64.551162 
L 241.419944 52.268446 
L 242.794764 43.698963 
L 244.016826 37.296244 
L 245.08613 32.68545 
L 246.155434 29.037573 
L 247.071981 26.698832 
L 247.83577 25.316086 
L 248.446801 24.584381 
L 249.057832 24.187847 
L 249.516105 24.110909 
L 249.974378 24.223121 
L 250.432651 24.524348 
L 251.043682 25.219182 
L 251.654713 26.247589 
L 252.418502 27.997718 
L 253.335049 30.770531 
L 254.251595 34.261737 
L 255.320899 39.216221 
L 256.542961 45.993378 
L 257.917781 54.956201 
L 259.445359 66.441988 
L 261.278452 82.097044 
L 263.41706 102.489081 
L 266.1667 131.095731 
L 274.568376 220.288204 
L 276.706984 239.831001 
L 278.540077 254.572962 
L 280.067655 265.18282 
L 281.442474 273.280148 
L 282.664536 279.235632 
L 283.733841 283.437712 
L 284.650387 286.263701 
L 285.566934 288.356442 
L 286.330722 289.531563 
L 286.941753 290.095842 
L 287.552784 290.324472 
L 288.011058 290.275288 
L 288.469331 290.037021 
L 289.080362 289.425847 
L 289.691393 288.4807 
L 290.455182 286.833345 
L 291.371728 284.182036 
L 292.288275 280.809297 
L 293.357579 275.988416 
L 294.579641 269.356774 
L 295.954461 260.546429 
L 297.482038 249.214197 
L 299.162373 235.080654 
L 301.148224 216.485254 
L 303.745106 189.86925 
L 308.786112 135.109394 
L 311.994024 101.636646 
L 314.285391 79.957568 
L 316.118484 64.551162 
L 317.798819 52.268446 
L 319.173639 43.698963 
L 320.395701 37.296244 
L 321.465005 32.68545 
L 322.534309 29.037573 
L 323.450856 26.698832 
L 324.214644 25.316086 
L 324.825675 24.584381 
L 325.436706 24.187847 
L 325.89498 24.110909 
L 326.353253 24.223121 
L 326.811526 24.524348 
L 327.422557 25.219182 
L 328.033588 26.247589 
L 328.797377 27.997718 
L 329.713923 30.770531 
L 330.63047 34.261737 
L 331.699774 39.216221 
L 332.921836 45.993378 
L 334.296656 54.956201 
L 335.824233 66.441988 
L 337.657326 82.097044 
L 339.795935 102.489081 
L 342.545574 131.095731 
L 350.947251 220.288204 
L 353.085859 239.831001 
L 354.918952 254.572962 
L 356.44653 265.18282 
L 357.821349 273.280148 
L 359.043411 279.235632 
L 360.112716 283.437712 
L 361.029262 286.263701 
L 361.945809 288.356442 
L 362.709597 289.531563 
L 363.320628 290.095842 
L 363.931659 290.324472 
L 364.389933 290.275288 
L 364.848206 290.037021 
L 365.459237 289.425847 
L 366.070268 288.4807 
L 366.834057 286.833345 
L 367.750603 284.182036 
L 368.66715 280.809297 
L 369.736454 275.988416 
L 370.958516 269.356774 
L 372.333336 260.546429 
L 373.860913 249.214197 
L 375.541248 235.080654 
L 377.527099 216.485254 
L 380.123981 189.86925 
L 383.136364 157.220013 
L 383.136364 157.220013 
" style="fill:none;stroke:#1f77b4;stroke-linecap:square;stroke-width:1.5;"/>
   </g>
   <g id="patch_7">
    <path d="M 62.39 303.64 
L 62.39 10.8 
" style="fill:none;stroke:#000000;stroke-linecap:square;stroke-linejoin:miter;stroke-width:0.8;"/>
   </g>
   <g id="patch_8">
    <path d="M 398.41 303.64 
L 398.41 10.8 
" style="fill:none;stroke:#000000;stroke-linecap:square;stroke-linejoin:miter;stroke-width:0.8;"/>
   </g>
   <g id="patch_9">
    <path d="M 62.39 303.64 
L 398.41 303.64 
" style="fill:none;stroke:#000000;stroke-linecap:square;stroke-linejoin:miter;stroke-width:0.8;"/>
   </g>
   <g id="patch_10">
    <path d="M 62.39 10.8 
L 398.41 10.8 
" style="fill:none;stroke:#000000;stroke-linecap:square;stroke-linejoin:miter;stroke-width:0.8;"/>
   </g>
  </g>
 </g>
 <defs>
  <clipPath id="p97d4076d3e">
   <rect height="292.84" width="336.02" x="62.39" y="10.8"/>
  </clipPath>
 </defs>
</svg>
